<svg id="Layer_1" data-name="Layer 1" xmlns="http://www.w3.org/2000/svg" viewBox="0 0 130.52 355.5"><defs><style>.cls-1{fill:#fff;}</style></defs><title>button-bg</title><path class="cls-1" d="M59.6,354.67a244.14,244.14,0,0,0,36.7-48.6,242.16,242.16,0,0,0,18.7-40.5,250.71,250.71,0,0,0,11.7-43.1,237.54,237.54,0,0,0,3.8-42.6,251.36,251.36,0,0,0-3.7-46.3,253.38,253.38,0,0,0-11.1-41.3,238.79,238.79,0,0,0-19.4-42.2A247.45,247.45,0,0,0,58.5.27L0,58.67a161.81,161.81,0,0,1,24.8,32.7,174.89,174.89,0,0,1,8.7,17.3l-.2.1a95.27,95.27,0,0,1,3.8,9.3c.1.3.2.5.3.8l.3.9q1.65,4.8,3,9.6h.2a190.77,190.77,0,0,1,4.5,18.8,156.78,156.78,0,0,1,2.2,19.2h-.2c.3,3.3.4,6.7.5,10v1.8c0,3.4-.2,6.7-.5,10h.2a179.14,179.14,0,0,1-2.2,19.2,147.07,147.07,0,0,1-4.5,18.8h-.2q-1.35,4.8-3,9.6c-.1.3-.2.5-.3.8l-.3.9c-1.2,3.1-2.5,6.2-3.8,9.2l.2.1a155.5,155.5,0,0,1-8.7,17.3A161.81,161.81,0,0,1,0,297.77l58.5,58Z" transform="translate(0 -0.27)"/></svg>