<?xml version="1.0" encoding="utf-8"?>
<!-- Generator: Adobe Illustrator 22.0.1, SVG Export Plug-In . SVG Version: 6.00 Build 0)  -->
<svg version="1.1" id="Layer_1" xmlns="http://www.w3.org/2000/svg" xmlns:xlink="http://www.w3.org/1999/xlink" x="0px" y="0px"
	 viewBox="0 0 512 131" style="enable-background:new 0 0 512 131;" xml:space="preserve">
<style type="text/css">
	.st0{fill:#FF0000;}
</style>
<title>button-bg</title>
<path class="st0" d="M432.9,71.2c-14.6-14.3-31-26.6-48.7-36.8c-12.9-7.5-26.5-13.8-40.6-18.8c-14-5.2-28.5-9.1-43.2-11.7
	C286.4,1.3,272.2,0,257.9,0c-15.5-0.2-31.1,1-46.4,3.7c-14.1,2.5-27.9,6.3-41.4,11.1c-14.7,5.1-28.8,11.6-42.3,19.5
	C109.7,44.8,93,57.6,78,72.3l58.5,58.7c9.8-9.7,20.8-18,32.7-24.9c5.6-3.2,11.4-6.1,17.3-8.7l0.1,0.2c3-1.4,6.1-2.7,9.3-3.8
	c0.3-0.1,0.5-0.2,0.8-0.3l0.9-0.3c3.2-1.1,6.4-2.1,9.6-3v-0.2c6.2-1.8,12.5-3.3,18.8-4.5c6.4-1.1,12.8-1.9,19.2-2.2v0.2
	c3.3-0.3,6.7-0.4,10-0.5h1.8c3.4,0,6.7,0.2,10,0.5v-0.2c6.4,0.4,12.9,1.1,19.2,2.2c6.4,1.1,12.7,2.6,18.8,4.5v0.2
	c3.2,0.9,6.4,1.9,9.6,3c0.3,0.1,0.5,0.2,0.8,0.3l0.9,0.3c3.1,1.2,6.2,2.5,9.2,3.8l0.1-0.2c6,2.5,11.7,5.5,17.3,8.7
	c11.9,6.9,22.9,15.2,32.7,24.9L434,72.3L432.9,71.2z"/>
</svg>
